<?xml version="1.0" encoding="utf-8"?>
<!-- Generator: Adobe Illustrator 24.0.1, SVG Export Plug-In . SVG Version: 6.00 Build 0)  -->
<svg version="1.1"
	 id="svg3715" xmlns:cc="http://creativecommons.org/ns#" xmlns:dc="http://purl.org/dc/elements/1.1/" xmlns:inkscape="http://www.inkscape.org/namespaces/inkscape" xmlns:rdf="http://www.w3.org/1999/02/22-rdf-syntax-ns#" xmlns:sodipodi="http://sodipodi.sourceforge.net/DTD/sodipodi-0.dtd" xmlns:svg="http://www.w3.org/2000/svg"
	 xmlns="http://www.w3.org/2000/svg" xmlns:xlink="http://www.w3.org/1999/xlink" x="0px" y="0px" viewBox="0 0 64 64"
	 style="enable-background:new 0 0 64 64;" xml:space="preserve">
<style type="text/css">
	.st0{fill:url(#SVGID_1_);}
	.st1{fill:#989898;}
</style>
<defs>
	
		<inkscape:perspective  id="perspective3723" inkscape:persp3d-origin="32 : 21.333333 : 1" inkscape:vp_x="0 : 32 : 1" inkscape:vp_y="0 : 1000 : 0" inkscape:vp_z="64 : 32 : 1" sodipodi:type="inkscape:persp3d">
		</inkscape:perspective>
</defs>
<sodipodi:namedview  bordercolor="#666666" borderopacity="1.0" id="base" inkscape:current-layer="layer1" inkscape:cx="-10.082463" inkscape:cy="25.822073" inkscape:document-units="px" inkscape:grid-bbox="true" inkscape:pageopacity="0.0" inkscape:pageshadow="2" inkscape:window-height="949" inkscape:window-maximized="0" inkscape:window-width="1280" inkscape:window-x="0" inkscape:window-y="25" inkscape:zoom="5.5" pagecolor="#ffffff" showgrid="true">
	</sodipodi:namedview>
<g>
	<linearGradient id="SVGID_1_" gradientUnits="userSpaceOnUse" x1="32" y1="1.7906" x2="32" y2="62.2091">
		<stop  offset="0" style="stop-color:#6B6B6B"/>
		<stop  offset="0.471" style="stop-color:#686868"/>
		<stop  offset="0.8686" style="stop-color:#5D5D5D"/>
		<stop  offset="1" style="stop-color:#585858"/>
	</linearGradient>
	<path class="st0" d="M32,62.2C15.3,62.2,1.8,48.7,1.8,32C1.8,15.3,15.3,1.8,32,1.8S62.2,15.3,62.2,32C62.2,48.7,48.7,62.2,32,62.2z
		"/>
	<path class="st1" d="M32,2.8c16.1,0,29.2,13.1,29.2,29.2S48.1,61.2,32,61.2S2.8,48.1,2.8,32S15.9,2.8,32,2.8 M32,0.8
		C14.8,0.8,0.8,14.8,0.8,32s14,31.2,31.2,31.2s31.2-14,31.2-31.2S49.2,0.8,32,0.8L32,0.8z"/>
</g>
<g>
	<path class="st1" d="M-45.3,29.5c0,5.2,0,10.3,0,15.5c0,0.5-0.1,1.1-0.3,1.5c-0.3,0.8-1.1,1.1-1.8,0.7c-0.4-0.2-0.8-0.5-1.1-0.8
		c-3.4-3.3-6.8-6.6-10.1-9.9c-0.3-0.3-0.5-0.4-0.9-0.4c-1.6,0-3.2,0-4.8,0c-1.3,0-1.9-0.6-1.9-1.9c0-3.1,0-6.2,0-9.2
		c0-1.2,0.6-1.8,1.8-1.8c1.7,0,3.3,0,5,0c0.2,0,0.5-0.1,0.7-0.3c3.4-3.3,6.8-6.6,10.2-10c0.5-0.4,0.9-0.9,1.6-0.9
		c0.8-0.1,1.3,0.2,1.6,0.9c0.1,0.4,0.2,0.8,0.2,1.2C-45.3,19.2-45.3,24.3-45.3,29.5C-45.3,29.5-45.3,29.5-45.3,29.5z"/>
	<path class="st1" d="M-24.2,29.5c-0.1,4.9-1.8,9.1-5.2,12.6c-1.3,1.3-2.8,2.4-4.5,3.3c-0.8,0.4-1.6,0.3-2.1-0.3
		c-0.5-0.5-0.6-1.4-0.1-2c0.2-0.3,0.5-0.5,0.8-0.6c3.1-1.7,5.5-4.2,6.8-7.5c1.8-4.7,1.4-9.2-1.4-13.5c-1.3-2.1-3.1-3.7-5.3-4.8
		c-0.5-0.3-1-0.7-1.1-1.3c-0.2-1.2,0.9-2.2,2-1.8c1.3,0.5,2.4,1.3,3.4,2.1c3.6,2.9,5.7,6.7,6.4,11.3c0,0.3,0.1,0.6,0.1,0.8
		C-24.3,28.5-24.3,29-24.2,29.5z"/>
	<path class="st1" d="M-30.7,30.1c-0.2,4.5-2.4,8.3-6.7,10.9c-0.8,0.5-1.7,0.3-2.2-0.4c-0.5-0.8-0.4-1.6,0.4-2.2
		c0.5-0.4,1.1-0.7,1.6-1.1c5.3-4.3,4.7-12.5-1.2-15.9c-0.7-0.4-1.2-0.9-1.1-1.8c0.1-1,1.1-1.7,2.1-1.3c1.4,0.6,2.6,1.6,3.7,2.8
		C-31.9,23.4-30.8,26.3-30.7,30.1z"/>
	<path class="st1" d="M-37.2,29.6c0,2.9-1.8,5.2-4.5,6.2c-1,0.3-1.9,0-2.2-0.9c-0.3-0.9,0.2-1.8,1.2-2.1c1.2-0.4,1.9-1.2,2.2-2.4
		c0.4-1.6-0.5-3.2-2.1-3.8c-0.5-0.2-1-0.4-1.2-0.9c-0.3-0.6-0.3-1.2,0.2-1.8c0.5-0.6,1.1-0.7,1.8-0.5
		C-39.2,24.2-37.2,26.8-37.2,29.6z"/>
</g>
<path class="st1" d="M-53.9,49.6c0.6,0,1.1,0,1.7,0c1.7,0,2.9,1.2,2.9,2.9c0,0.7,0,1.4,0,2c0.1,1.1,0.8,1.9,1.8,2.2
	c1,0.4,2,0.2,2.8-0.6c0.4-0.4,0.8-0.9,1.3-1.3c1.2-1.1,2.9-1.1,4,0c1,0.9,1.9,1.8,2.8,2.8c1,1,1,2.6,0.1,3.7
	c-0.4,0.5-0.9,0.9-1.4,1.4c-0.8,0.8-1,1.8-0.6,2.8c0.4,1.1,1.3,1.7,2.5,1.8c0.6,0,1.2,0,1.8,0c1.6,0,2.7,1.1,2.7,2.7
	c0,1.3,0,2.6,0,3.9c0,1.6-1.2,2.7-2.8,2.7c-0.6,0-1.3,0-1.9,0c-1.1,0.1-1.9,0.7-2.3,1.8c-0.4,1-0.2,2,0.6,2.8
	c0.4,0.4,0.8,0.8,1.2,1.2c1,1.1,1.2,2.7,0.2,3.8c-1,1.1-2,2.1-3.1,3.1c-1.1,0.9-2.8,0.8-3.8-0.1c-0.4-0.4-0.8-0.8-1.2-1.2
	c-0.9-0.9-1.9-1.1-3.1-0.7c-1.1,0.4-1.7,1.4-1.7,2.6c0,0.6,0,1.2,0,1.9c-0.1,1.5-1.3,2.6-2.8,2.6c-1.2,0-2.3,0-3.5,0
	c-1.6,0-2.8-1.1-2.9-2.7c0-0.6,0-1.3,0-1.9c0-1.2-0.6-2-1.6-2.4c-1-0.5-2-0.3-2.9,0.4c-0.4,0.4-0.8,0.8-1.3,1.2
	c-1.2,1.2-3,1.2-4.2,0c-0.9-0.8-1.8-1.7-2.6-2.6c-1.1-1.1-1.1-2.8,0-4c0.4-0.4,0.8-0.8,1.2-1.2c0.8-0.8,1-1.8,0.6-2.9
	c-0.4-1-1.2-1.6-2.4-1.7c-0.6,0-1.2,0-1.8,0c-1.9,0-3.1-1.2-3.1-3.1c0-1.1,0-2.1,0-3.2c0-1.7,1.2-2.9,2.9-3c0.6,0,1.2,0,1.8,0
	c1.2,0,2.1-0.6,2.5-1.7c0.4-1.1,0.2-2.1-0.6-2.9c-0.4-0.4-0.9-0.8-1.3-1.3c-1-1.2-1-2.8,0.1-3.9c0.8-0.8,1.7-1.7,2.5-2.5
	c1.3-1.3,3-1.3,4.4,0c0.4,0.4,0.7,0.8,1.1,1.1c0.8,0.8,1.8,1,2.9,0.5c1.1-0.5,1.6-1.3,1.7-2.5c0-0.8,0-1.5,0.1-2.3
	c0.2-1.4,1.4-2.4,2.8-2.4C-55.1,49.6-54.5,49.6-53.9,49.6z M-53.9,62.7c-5.2,0-9.4,4.2-9.4,9.4c0,5.2,4.2,9.4,9.4,9.4
	c5.1,0,9.4-4.2,9.4-9.3C-44.6,66.9-48.8,62.7-53.9,62.7z"/>
<g>
	<path class="st1" d="M-77-15.3c0.1-2.1,1-3.4,2.7-4.1c2.3-1,4.6-1.9,6.9-2.8c2.7-1.1,5.3-2.2,8-3.3c2.5-1,4.7-0.1,5.7,2.4
		c3.4,8.1,6.8,16.2,10.1,24.2c1,2.5,0.1,4.8-2.4,5.9c-4.9,2.1-9.9,4.1-14.8,6.1c-2.4,1-4.6,0-5.6-2.4c-3.4-8.1-6.8-16.3-10.1-24.4
		C-76.8-14.3-76.9-14.9-77-15.3z"/>
	<path class="st1" d="M-38.9-4.4c0-6.1,0-12.2,0-18.5c1.2,0.6,2.5,1,3.6,1.7c1.7,1,2.2,3.2,1.4,5.1c-0.8,1.8-1.5,3.7-2.3,5.5
		c-0.8,1.9-1.6,3.9-2.4,5.8C-38.7-4.6-38.8-4.5-38.9-4.4C-38.9-4.4-38.9-4.4-38.9-4.4z"/>
	<path class="st1" d="M-50.2-25.9c1.3,0,2.5-0.1,3.7,0c1.8,0.2,3.2,1.8,3.4,3.6c0,0.2,0,0.5,0,0.7c0,4.1,0,8.1,0,12.2
		c0,0.1,0,0.3,0,0.4c0,0-0.1,0-0.1,0C-45.5-14.6-47.9-20.3-50.2-25.9z"/>
</g>
<g>
	<path class="st1" d="M-29.8,96.9c9.1,4.5,18.2,4.5,27.3,0c0,0.2,0,0.3,0,0.5c0,4.4,0,8.8,0,13.3c0,5.4-3.6,9.9-8.8,11.1
		c-0.4,0.1-0.9,0.2-1.3,0.2c-3,0-6,0.4-8.9-0.4c-4.8-1.3-8.2-5.7-8.2-10.7c0-4.5,0-9,0-13.5C-29.8,97.2-29.8,97.1-29.8,96.9z"/>
	<path class="st1" d="M-15.7,81.8c2.3-0.1,4.6,0,6.7,1.1c4.1,2.1,6.3,5.4,6.5,10c0,0.8,0,1.6,0,2.3c0,0.2-0.1,0.4-0.3,0.5
		c-3.9,2.1-8,3.3-12.5,3.4c-0.1,0-0.2,0-0.4,0c0-1,0-1.9,0-2.9c0-0.1,0.2-0.2,0.3-0.3c1.1-0.5,1.6-1.3,1.6-2.5c0-2,0-4,0-6
		c0-1.2-0.5-2-1.6-2.5c-0.1-0.1-0.3-0.3-0.3-0.5C-15.6,83.6-15.6,82.7-15.7,81.8C-15.7,81.8-15.7,81.8-15.7,81.8z"/>
	<path class="st1" d="M-16.7,81.8c0,0.9,0,1.8,0,2.6c0,0.3-0.1,0.5-0.4,0.6c-1,0.4-1.5,1.2-1.5,2.2c0,2.1,0,4.2,0,6.3
		c0,1.1,0.5,1.8,1.5,2.3c0.1,0.1,0.3,0.2,0.3,0.3c0,0.9,0,1.9,0,3c-1.4-0.1-2.7-0.2-3.9-0.4c-3.1-0.5-6-1.5-8.8-3
		c-0.3-0.2-0.4-0.3-0.4-0.7c0-1.7-0.1-3.4,0.4-5.1c1.4-4.8,5.7-8.1,10.7-8.2C-18,81.8-17.3,81.8-16.7,81.8
		C-16.7,81.8-16.7,81.8-16.7,81.8z"/>
	<path class="st1" d="M-14.9,89.1c0,0.6,0,1.2,0,1.8c0,0.8-0.5,1.3-1.3,1.3c-0.7,0-1.3-0.5-1.3-1.3c0-1.2,0-2.5,0-3.7
		c0-0.8,0.5-1.3,1.2-1.3c0.7,0,1.3,0.5,1.3,1.3c0,0,0,0.1,0,0.1C-14.9,88-14.9,88.5-14.9,89.1z"/>
</g>
<g>
	<path class="st1" d="M29,23.2c0.1,0.1,0.1,0.2,0.1,0.3c0.7,1,0.8,2.2,0.8,3.4c0,1.1,0,2.1,0.1,3.2c0.1,0.6,0.4,1.3,0.8,1.8
		c0.5,0.8,1.3,1.1,2.2,1c0.6,0,1,0.2,1.3,0.7c0.4,0.6,0.9,1.2,1.4,1.8c-1-0.2-2-0.5-2.9-0.6c-1.1-0.2-2.2-0.3-3.2,0
		c-2,0.5-3.4,2.1-3.7,4.4c-0.1,1.4,0,2.7-0.1,4.1c0,1,0,2.1-0.2,3.1c-0.3,1.6-1.4,2.3-2.9,2.5c-3.4,0.5-5.9-0.8-7.8-3.5
		c-1.4-2-2.2-4.4-2.5-6.8c-0.8-5.4,0.6-10.3,3.1-15c1.9-3.5,4.4-6.6,7.6-9.1c3.4-2.6,7.2-4,11.6-3.7c3.1,0.2,6,1.2,8.6,2.8
		c2.9,1.7,5.4,3.8,7.1,6.7c1,1.6,1.7,3.4,1.7,5.4c0,1.6-0.6,3-1.4,4.3c-1.7,2.6-4,4.6-6.7,6c0,0,0,0,0,0c-1.2,0.6-1.3,0.6-2.1-0.5
		c-1.3-1.7-2.6-3.4-3.9-5.2c-0.1-0.1-0.2-0.4-0.1-0.5c0.9-2.3-0.2-4-1.8-5.1c-1.5-1-3.2-1.5-5-1.6C30.3,23.2,29.7,23.2,29,23.2z
		 M23.4,42c-0.1-1.5-0.7-3-2.3-3.9c-2-1.3-4.2-0.4-5,1.8c-0.7,2,0.3,4.6,2.1,5.6c0.8,0.5,1.7,0.7,2.6,0.4C22.5,45.5,23.4,44,23.4,42
		z M42.9,26.2c0,0.1,0,0.2,0,0.4c0.2,1.9,1.9,3.1,3.7,2.5c1.9-0.7,3.1-3,2.4-5c-0.5-1.5-2.1-2.2-3.6-1.7
		C44,22.9,42.9,24.4,42.9,26.2z M41.6,17.6c0-0.2,0-0.4,0-0.6c-0.3-2.3-2.5-3.4-4.4-2.2c-1.6,1-2.2,3.3-1.3,4.9c0.8,1.5,2.5,2,4,1.2
		C41,20.1,41.6,19,41.6,17.6z M25.8,17.6c0,1.4,0.8,2.8,1.8,3.5c1.4,0.9,3,0.4,3.5-1.2c0.6-1.5,0-3.6-1.3-4.6
		c-1.6-1.2-3.4-0.6-3.9,1.3C25.9,17,25.9,17.3,25.8,17.6z M23.8,25.1c0-2-2.1-3.7-4.1-3.2c-1.3,0.3-2.1,1.5-2,2.7
		c0.2,1.7,1.7,3.1,3.4,3.1C22.6,27.7,23.8,26.6,23.8,25.1z"/>
	<path class="st1" d="M49.4,48.3c-0.4,0.3-0.8,0.6-1.3,1c-4.1-5.4-8.2-10.7-12.3-16.1c0.4-0.3,0.8-0.6,1.3-1
		C41.2,37.5,45.3,42.9,49.4,48.3z"/>
	<path class="st1" d="M31.2,24.7c1.8,0.2,3.5,0.6,4.7,2.1c0.9,1.1,0.7,2.8-0.5,3.8c-0.3,0.3-0.7,0.5-1,0.8c-1,0.7-2.7,0.1-3-1.1
		c-0.2-0.6-0.2-1.3-0.2-2C31.2,27.1,31.2,25.9,31.2,24.7z"/>
</g>
</svg>
