<?xml version="1.0" encoding="utf-8"?>
<!-- Generator: Adobe Illustrator 24.0.1, SVG Export Plug-In . SVG Version: 6.00 Build 0)  -->
<svg version="1.1"
	 id="svg3715" xmlns:cc="http://creativecommons.org/ns#" xmlns:dc="http://purl.org/dc/elements/1.1/" xmlns:inkscape="http://www.inkscape.org/namespaces/inkscape" xmlns:rdf="http://www.w3.org/1999/02/22-rdf-syntax-ns#" xmlns:sodipodi="http://sodipodi.sourceforge.net/DTD/sodipodi-0.dtd" xmlns:svg="http://www.w3.org/2000/svg"
	 xmlns="http://www.w3.org/2000/svg" xmlns:xlink="http://www.w3.org/1999/xlink" x="0px" y="0px" viewBox="0 0 64 64"
	 style="enable-background:new 0 0 64 64;" xml:space="preserve">
<style type="text/css">
	.st0{fill:url(#SVGID_1_);}
	.st1{fill:#989898;}
</style>
<defs>
	
		<inkscape:perspective  id="perspective3723" inkscape:persp3d-origin="32 : 21.333333 : 1" inkscape:vp_x="0 : 32 : 1" inkscape:vp_y="0 : 1000 : 0" inkscape:vp_z="64 : 32 : 1" sodipodi:type="inkscape:persp3d">
		</inkscape:perspective>
</defs>
<sodipodi:namedview  bordercolor="#666666" borderopacity="1.0" id="base" inkscape:current-layer="layer1" inkscape:cx="-10.082463" inkscape:cy="25.822073" inkscape:document-units="px" inkscape:grid-bbox="true" inkscape:pageopacity="0.0" inkscape:pageshadow="2" inkscape:window-height="949" inkscape:window-maximized="0" inkscape:window-width="1280" inkscape:window-x="0" inkscape:window-y="25" inkscape:zoom="5.5" pagecolor="#ffffff" showgrid="true">
	</sodipodi:namedview>
<g>
	<linearGradient id="SVGID_1_" gradientUnits="userSpaceOnUse" x1="32" y1="1.7906" x2="32" y2="62.2091">
		<stop  offset="0" style="stop-color:#6B6B6B"/>
		<stop  offset="1" style="stop-color:#585858"/>
	</linearGradient>
	<path class="st0" d="M32,62.2C15.3,62.2,1.8,48.7,1.8,32C1.8,15.3,15.3,1.8,32,1.8S62.2,15.3,62.2,32C62.2,48.7,48.7,62.2,32,62.2z
		"/>
	<path class="st1" d="M32,2.8c16.1,0,29.2,13.1,29.2,29.2S48.1,61.2,32,61.2S2.8,48.1,2.8,32S15.9,2.8,32,2.8 M32,0.8
		C14.8,0.8,0.8,14.8,0.8,32s14,31.2,31.2,31.2s31.2-14,31.2-31.2S49.2,0.8,32,0.8L32,0.8z"/>
</g>
<g>
	<path class="st1" d="M32,31.8c0,5.2,0,10.3,0,15.5c0,0.5-0.1,1.1-0.3,1.5c-0.3,0.8-1.1,1.1-1.8,0.7c-0.4-0.2-0.8-0.5-1.1-0.8
		c-3.4-3.3-6.8-6.6-10.1-9.9c-0.3-0.3-0.5-0.4-0.9-0.4c-1.6,0-3.2,0-4.8,0c-1.3,0-1.9-0.6-1.9-1.9c0-3.1,0-6.2,0-9.2
		c0-1.2,0.6-1.8,1.8-1.8c1.7,0,3.3,0,5,0c0.2,0,0.5-0.1,0.7-0.3c3.4-3.3,6.8-6.6,10.2-10c0.5-0.4,0.9-0.9,1.6-0.9
		c0.8-0.1,1.3,0.2,1.6,0.9c0.1,0.4,0.2,0.8,0.2,1.2C32,21.6,32,26.7,32,31.8C32,31.8,32,31.8,32,31.8z"/>
	<path class="st1" d="M53,31.9c-0.1,4.9-1.8,9.1-5.2,12.6c-1.3,1.3-2.8,2.4-4.5,3.3c-0.8,0.4-1.6,0.3-2.1-0.3
		c-0.5-0.5-0.6-1.4-0.1-2c0.2-0.3,0.5-0.5,0.8-0.6c3.1-1.7,5.5-4.2,6.8-7.5c1.8-4.7,1.4-9.2-1.4-13.5c-1.3-2.1-3.1-3.7-5.3-4.8
		c-0.5-0.3-1-0.7-1.1-1.3c-0.2-1.2,0.9-2.2,2-1.8c1.3,0.5,2.4,1.3,3.4,2.1c3.6,2.9,5.7,6.7,6.4,11.3c0,0.3,0.1,0.6,0.1,0.8
		C53,30.8,53,31.4,53,31.9z"/>
	<path class="st1" d="M46.6,32.4c-0.2,4.5-2.4,8.3-6.7,10.9c-0.8,0.5-1.7,0.3-2.2-0.4c-0.5-0.8-0.4-1.6,0.4-2.2
		c0.5-0.4,1.1-0.7,1.6-1.1c5.3-4.3,4.7-12.5-1.2-15.9c-0.7-0.4-1.2-0.9-1.1-1.8c0.1-1,1.1-1.7,2.1-1.3c1.4,0.6,2.6,1.6,3.7,2.8
		C45.4,25.7,46.5,28.7,46.6,32.4z"/>
	<path class="st1" d="M40.1,32c0,2.9-1.8,5.2-4.5,6.2c-1,0.3-1.9,0-2.2-0.9c-0.3-0.9,0.2-1.8,1.2-2.1c1.2-0.4,1.9-1.2,2.2-2.4
		c0.4-1.6-0.5-3.2-2.1-3.8c-0.5-0.2-1-0.4-1.2-0.9c-0.3-0.6-0.3-1.2,0.2-1.8c0.5-0.6,1.1-0.7,1.8-0.5C38.1,26.5,40.1,29.1,40.1,32z"
		/>
</g>
</svg>
