<?xml version="1.0" encoding="utf-8"?>
<!-- Generator: Adobe Illustrator 24.0.1, SVG Export Plug-In . SVG Version: 6.00 Build 0)  -->
<svg version="1.1"
	 id="svg2" xmlns:cc="http://creativecommons.org/ns#" xmlns:dc="http://purl.org/dc/elements/1.1/" xmlns:inkscape="http://www.inkscape.org/namespaces/inkscape" xmlns:rdf="http://www.w3.org/1999/02/22-rdf-syntax-ns#" xmlns:sodipodi="http://sodipodi.sourceforge.net/DTD/sodipodi-0.dtd" xmlns:svg="http://www.w3.org/2000/svg"
	 xmlns="http://www.w3.org/2000/svg" xmlns:xlink="http://www.w3.org/1999/xlink" x="0px" y="0px" viewBox="0 0 64 64"
	 style="enable-background:new 0 0 64 64;" xml:space="preserve">
<style type="text/css">
	.st0{fill:#FFFFFF;}
</style>
<defs>
	
		<inkscape:perspective  id="perspective10" inkscape:persp3d-origin="372.04724 : 350.78739 : 1" inkscape:vp_x="0 : 526.18109 : 1" inkscape:vp_y="0 : 1000 : 0" inkscape:vp_z="744.09448 : 526.18109 : 1" sodipodi:type="inkscape:persp3d">
		</inkscape:perspective>
	
		<inkscape:perspective  id="perspective3685" inkscape:persp3d-origin="0.5 : 0.33333333 : 1" inkscape:vp_x="0 : 0.5 : 1" inkscape:vp_y="0 : 1000 : 0" inkscape:vp_z="1 : 0.5 : 1" sodipodi:type="inkscape:persp3d">
		</inkscape:perspective>
	
		<inkscape:perspective  id="perspective3766" inkscape:persp3d-origin="0.5 : 0.33333333 : 1" inkscape:vp_x="0 : 0.5 : 1" inkscape:vp_y="0 : 1000 : 0" inkscape:vp_z="1 : 0.5 : 1" sodipodi:type="inkscape:persp3d">
		</inkscape:perspective>
	
		<inkscape:perspective  id="perspective3797" inkscape:persp3d-origin="0.5 : 0.33333333 : 1" inkscape:vp_x="0 : 0.5 : 1" inkscape:vp_y="0 : 1000 : 0" inkscape:vp_z="1 : 0.5 : 1" sodipodi:type="inkscape:persp3d">
		</inkscape:perspective>
	
		<inkscape:perspective  id="perspective3896" inkscape:persp3d-origin="0.5 : 0.33333333 : 1" inkscape:vp_x="0 : 0.5 : 1" inkscape:vp_y="0 : 1000 : 0" inkscape:vp_z="1 : 0.5 : 1" sodipodi:type="inkscape:persp3d">
		</inkscape:perspective>
</defs>
<sodipodi:namedview  bordercolor="#666666" borderopacity="1.0" id="base" inkscape:current-layer="layer2" inkscape:cx="11.205704" inkscape:cy="35.993597" inkscape:document-units="px" inkscape:pageopacity="0.0" inkscape:pageshadow="2" inkscape:window-height="1028" inkscape:window-maximized="1" inkscape:window-width="1920" inkscape:window-x="-8" inkscape:window-y="-8" inkscape:zoom="7.84375" pagecolor="#ffffff" showgrid="false">
	</sodipodi:namedview>
<g id="layer1" transform="translate(0,-988.36218)" inkscape:groupmode="layer" inkscape:label="Ebene 1">
</g>
<g>
	<path class="st0" d="M62.5,30.2c0,1.2,0,2.4,0,3.7c0,0.1,0,0.2,0,0.3c0,1.7-0.4,3.3-0.8,5c-1.7,6.9-5.4,12.6-11,17
		c-6.4,5-13.7,6.9-21.8,6.2c-2.3-0.2-4.6-0.8-6.8-1.5c-5.8-2-10.5-5.5-14.2-10.2c-3.9-5-6-10.7-6.3-16.9c-0.2-3,0-6,0.8-8.9
		c1.3-5.1,3.6-9.7,7.3-13.5c1.7-1.8,3.5-3.5,5.6-4.8c4.5-2.9,9.4-4.6,14.7-5c2.7-0.2,5.4,0,8.1,0.5c6,1.3,11.2,4,15.5,8.5
		c3.2,3.2,5.5,6.9,7.1,11.1c0.8,2.3,1.4,4.7,1.7,7.2C62.4,29.4,62.4,29.8,62.5,30.2z M32,53.8c12.1,0,22.3-10,21.8-22.7
		c-0.4-11.4-9.9-21.3-22.4-20.9c-12.3,0.3-21.3,10.4-21.2,22C10.3,44.2,20.1,53.8,32,53.8z"/>
	<path class="st0" d="M40.5,44.9c-4.8,3.2-12.8,3.8-18.8-1.6c-6.1-5.5-6.2-14.4-2.5-19.9c2.4,2.4,4.8,4.7,7.2,7.1s4.8,4.7,7.1,7.1
		C35.8,40.1,38.2,42.4,40.5,44.9z"/>
	<path class="st0" d="M23.6,19c0.1-0.1,0.2-0.2,0.4-0.2c2.9-1.7,5.9-2.5,9.3-2.2c2.8,0.2,5.3,1,7.6,2.7c3.1,2.2,5.3,5.1,6.2,8.9
		c0.9,3.9,0.5,7.6-1.3,11.2c-0.1,0.3-0.3,0.5-0.4,0.8c-0.1,0.2-0.2,0.2-0.4,0.1c-0.5-0.4-1-0.8-1.4-1.3c-6.5-6.5-13-13-19.6-19.6
		C23.8,19.2,23.7,19.1,23.6,19z"/>
</g>
</svg>
