<?xml version="1.0" encoding="utf-8"?>
<!-- Generator: Adobe Illustrator 24.0.1, SVG Export Plug-In . SVG Version: 6.00 Build 0)  -->
<svg version="1.1"
	 id="svg2" xmlns:cc="http://creativecommons.org/ns#" xmlns:dc="http://purl.org/dc/elements/1.1/" xmlns:inkscape="http://www.inkscape.org/namespaces/inkscape" xmlns:rdf="http://www.w3.org/1999/02/22-rdf-syntax-ns#" xmlns:sodipodi="http://sodipodi.sourceforge.net/DTD/sodipodi-0.dtd" xmlns:svg="http://www.w3.org/2000/svg"
	 xmlns="http://www.w3.org/2000/svg" xmlns:xlink="http://www.w3.org/1999/xlink" x="0px" y="0px" viewBox="0 0 48 48"
	 style="enable-background:new 0 0 48 48;" xml:space="preserve">
<defs>
	
		<inkscape:perspective  id="perspective10" inkscape:persp3d-origin="372.04724 : 350.78739 : 1" inkscape:vp_x="0 : 526.18109 : 1" inkscape:vp_y="0 : 1000 : 0" inkscape:vp_z="744.09448 : 526.18109 : 1" sodipodi:type="inkscape:persp3d">
		</inkscape:perspective>
	
		<inkscape:perspective  id="perspective2447" inkscape:persp3d-origin="372.04724 : 350.78739 : 1" inkscape:vp_x="0 : 526.18109 : 1" inkscape:vp_y="0 : 1000 : 0" inkscape:vp_z="744.09448 : 526.18109 : 1" sodipodi:type="inkscape:persp3d">
		</inkscape:perspective>
	
		<inkscape:perspective  id="perspective2687" inkscape:persp3d-origin="372.04724 : 350.78739 : 1" inkscape:vp_x="0 : 526.18109 : 1" inkscape:vp_y="0 : 1000 : 0" inkscape:vp_z="744.09448 : 526.18109 : 1" sodipodi:type="inkscape:persp3d">
		</inkscape:perspective>
</defs>
<sodipodi:namedview  bordercolor="#666666" borderopacity="1.0" id="base" inkscape:current-layer="g2551" inkscape:cx="23.789126" inkscape:cy="21.065041" inkscape:document-units="px" inkscape:pageopacity="0.0" inkscape:pageshadow="2" inkscape:window-height="725" inkscape:window-maximized="0" inkscape:window-width="1274" inkscape:window-x="0" inkscape:window-y="25" inkscape:zoom="18.217407" pagecolor="#ffffff" showgrid="false">
	</sodipodi:namedview>
<path d="M41.8,21.5c-0.2,2.5-0.4,5-0.7,7.5c-0.3,2.1-0.9,4.1-2.6,5.6c-0.4,0.4-1,0.7-1.6,1c-0.4,0.2-0.9,0.4-1.3,0.6
	c-1.2,0.5-2,1.3-2.4,2.5c-0.3,0.8-0.6,1.6-1,2.4c-0.5,1.4-1.6,2.2-3.1,2.7c-1.8,0.6-3.6,0.8-5.4,0.7c-1.5-0.1-3-0.3-4.5-0.6
	c-1.8-0.4-3.1-1.4-3.7-3.2c-0.2-0.6-0.5-1.1-0.7-1.7c-0.5-1.4-1.5-2.5-3-3c-2.9-0.9-4.2-3.1-4.8-5.7c-0.7-3.3-0.9-6.7-0.8-10.2
	c0.1-4.5,2.2-8.2,5.6-11.4c3-2.8,6.6-4.5,10.8-5c2.9-0.3,5.6,0.3,8.2,1.5c5.6,2.6,9.2,6.7,10.7,12.5c0.2,0.6,0.1,1.3,0.2,1.9
	c0,0.6,0,1.3,0,1.9C41.7,21.5,41.7,21.5,41.8,21.5z M32.4,23.5c0,0,0,0.1,0,0.1c-0.6,0-1.3,0.1-1.9,0.1c-2.5,0.3-3.3,0.9-3.5,2.9
	c-0.2,2,0.3,3.8,2.1,5.1c1.8,1.3,3.7,1.3,5.8,0.8c2.6-0.7,4-2.2,3.9-4.5c-0.1-1.8-0.8-3.1-2.6-3.7C34.9,23.9,33.6,23.8,32.4,23.5z
	 M21,27.4c0-0.3,0-0.7-0.1-1.1c-0.1-1.2-0.8-1.9-2-2.2c-0.7-0.2-1.5-0.3-2.2-0.4c-1.6-0.1-3.3-0.2-4.9,0.5c-2.4,1-3.5,4.1-2,6.2
	c0.9,1.3,2.4,1.8,3.9,2.2C17.7,33.5,20.9,31.3,21,27.4z M25.3,37.9c1.5,0.1,2.1-0.6,1.7-1.9c-0.4-1.2-0.9-2.3-1.4-3.5
	c-0.3-0.7-0.8-1.1-1.7-1.2c-0.8,0-1.3,0.5-1.6,1.1c-0.5,1.2-1,2.4-1.4,3.6c-0.4,1.1,0.6,2.1,1.9,2C23.6,38,24.5,38,25.3,37.9z"/>
</svg>
