<?xml version="1.0" encoding="utf-8"?>
<!-- Generator: Adobe Illustrator 24.0.1, SVG Export Plug-In . SVG Version: 6.00 Build 0)  -->
<svg version="1.1"
	 id="svg1931" xmlns:cc="http://creativecommons.org/ns#" xmlns:dc="http://purl.org/dc/elements/1.1/" xmlns:inkscape="http://www.inkscape.org/namespaces/inkscape" xmlns:rdf="http://www.w3.org/1999/02/22-rdf-syntax-ns#" xmlns:sodipodi="http://sodipodi.sourceforge.net/DTD/sodipodi-0.dtd" xmlns:svg="http://www.w3.org/2000/svg"
	 xmlns="http://www.w3.org/2000/svg" xmlns:xlink="http://www.w3.org/1999/xlink" x="0px" y="0px" viewBox="0 0 128 128"
	 style="enable-background:new 0 0 128 128;" xml:space="preserve">
<style type="text/css">
	.st0{fill:#FFFFFF;}
</style>
<sodipodi:namedview  bordercolor="#666666" borderopacity="1.0" gridtolerance="10.0" guidetolerance="10.0" id="base" inkscape:current-layer="g5908" inkscape:cx="-26.577351" inkscape:cy="72.426878" inkscape:pageopacity="0.0" inkscape:pageshadow="2" inkscape:window-height="933" inkscape:window-maximized="0" inkscape:window-width="1163" inkscape:window-x="204" inkscape:window-y="90" inkscape:zoom="4" objecttolerance="10.0" pagecolor="#ffffff" showgrid="false">
	</sodipodi:namedview>
<path class="st0" d="M102.7,61.1c-1.4-0.5-2.8-1-4.7-1.7c-0.2-0.1-0.5-0.4-0.5-0.7V39.6C97.7,21,82.6,5.9,64,5.9S30.3,21,30.3,39.6
	v19.2c0,0.2-0.3,0.6-0.5,0.7c-1.8,0.6-3.3,1.1-4.7,1.7c-1.6,0.6-2.8,2.4-2.8,4.2v44.2c0,1.7,1.2,3.5,2.8,4.2
	c12.4,4.9,25.5,7.4,38.8,7.4c13.3,0,26.4-2.5,38.8-7.4c1.6-0.6,2.8-2.4,2.8-4.2V65.3C105.5,63.5,104.3,61.8,102.7,61.1z M69.2,104.3
	l-6.2,6h-0.2l-6.1-6v-0.2c0.9-0.3,2-1.2,3.4-2.5c1.4-1.4,2.3-2.5,2.7-3.5h0.2c0.4,0.9,1.4,2.1,2.7,3.5c1.4,1.4,2.5,2.2,3.4,2.5
	V104.3z M74.5,84.8c-2.1,2.6-5.1,4.7-8.9,6.3l-2.4,5.5h-0.2l-3.5-7.7c1.5-0.6,2.7-1.3,3.7-2.1c1-0.8,1.9-1.6,2.5-2.4
	c0.6-0.8,1.1-1.7,1.4-2.7c0.3-1,0.6-2,0.7-2.8c0.1-0.9,0.2-1.9,0.2-3c0-2.6-0.5-4.6-1.4-6.1c-1-1.5-2.4-2.2-4.2-2.2
	c-1.8,0-3.1,0.7-4.1,2.1s-1.5,3.1-1.5,5c0,1.6,0.2,2.9,0.5,3.8l-0.2,0.2l-7.1-9c1.7-1.5,3.7-2.8,5.9-3.8c2.3-1,4.7-1.5,7.4-1.5
	c4.4,0,7.9,1.1,10.6,3.2c2.7,2.1,4,4.9,4,8.4C77.7,79.2,76.6,82.2,74.5,84.8z M86.1,56.2c-7.2-1.6-14.7-2.3-22.1-2.3
	s-14.8,0.8-22.1,2.3V39.6c0-12.2,9.9-22.1,22.1-22.1s22.1,9.9,22.1,22.1V56.2z"/>
</svg>
