<?xml version="1.0" encoding="utf-8"?>
<!-- Generator: Adobe Illustrator 24.0.1, SVG Export Plug-In . SVG Version: 6.00 Build 0)  -->
<svg version="1.1"
	 id="svg2646" xmlns:cc="http://creativecommons.org/ns#" xmlns:dc="http://purl.org/dc/elements/1.1/" xmlns:inkscape="http://www.inkscape.org/namespaces/inkscape" xmlns:rdf="http://www.w3.org/1999/02/22-rdf-syntax-ns#" xmlns:sodipodi="http://sodipodi.sourceforge.net/DTD/sodipodi-0.dtd" xmlns:svg="http://www.w3.org/2000/svg"
	 xmlns="http://www.w3.org/2000/svg" xmlns:xlink="http://www.w3.org/1999/xlink" x="0px" y="0px" viewBox="0 0 64 64"
	 style="enable-background:new 0 0 64 64;" xml:space="preserve">
<style type="text/css">
	.st0{fill:#FFFFFF;}
</style>
<defs>
	
		<inkscape:perspective  id="perspective2654" inkscape:persp3d-origin="372.04724 : 350.78739 : 1" inkscape:vp_x="0 : 526.18109 : 1" inkscape:vp_y="0 : 1000 : 0" inkscape:vp_z="744.09448 : 526.18109 : 1" sodipodi:type="inkscape:persp3d">
		</inkscape:perspective>
</defs>
<sodipodi:namedview  bordercolor="#666666" borderopacity="1.0" id="base" inkscape:current-layer="layer2" inkscape:cx="-58.636066" inkscape:cy="33.549415" inkscape:document-units="px" inkscape:pageopacity="0.0" inkscape:pageshadow="2" inkscape:window-height="723" inkscape:window-width="1272" inkscape:window-x="0" inkscape:window-y="248" inkscape:zoom="7.625" pagecolor="#ffffff" showgrid="false">
	</sodipodi:namedview>
<g id="layer1" inkscape:groupmode="layer" inkscape:label="Ebene 1">
</g>
<path class="st0" d="M33.4,62.8c-0.9,0-1.8,0-2.8,0c-0.1,0-0.2,0-0.4-0.1c-3.1-0.2-6-0.8-8.9-1.8c-6.9-2.6-12.2-7.1-16-13.4
	c-2.2-3.8-3.6-7.8-4-12.2c-0.1-0.6-0.1-1.3-0.2-1.9c0-0.9,0-1.8,0-2.8c0-0.1,0-0.2,0.1-0.3c0.2-1.4,0.3-2.8,0.5-4.1
	c1.1-5.7,3.6-10.7,7.5-15c5-5.4,11.2-8.7,18.5-9.7c3.6-0.5,7.1-0.4,10.6,0.4C46.1,3.5,52.4,7.6,57,14c3.2,4.4,5.1,9.3,5.6,14.7
	c0.1,0.6,0.1,1.3,0.2,1.9c0,0.9,0,1.8,0,2.8c0,0.1,0,0.2-0.1,0.4c-0.1,1.7-0.3,3.5-0.7,5.2c-1.9,8-6.3,14.3-13.2,18.9
	c-4.1,2.7-8.7,4.3-13.6,4.9C34.7,62.7,34,62.8,33.4,62.8z M28.3,37c0,0.2,0,0.3,0,0.4c0,1.5,0,3,0,4.5c0,2.8,0,5.5,0,8.3
	c0,2.6,2.5,4.5,5.1,3.9c1.8-0.4,3.1-2.1,3.1-4c0-4.2,0-8.5,0-12.7c0-0.1,0-0.2,0-0.4c0.2,0,0.3,0,0.5,0c4.2,0,8.4,0,12.6,0
	c2.8,0,4.7-2.6,4-5.2c-0.5-1.8-2.1-3-4.1-3c-4.2,0-8.4,0-12.6,0c-0.1,0-0.3,0-0.4,0c0-0.2,0-0.3,0-0.4c0-1.3,0-2.5,0-3.8
	c0-3,0-6.1,0-9.1c0-2.5-2.5-4.4-4.9-3.8c-1.9,0.4-3.2,2-3.2,4c0,4.2,0,8.5,0,12.7c0,0.1,0,0.2,0,0.4c-0.2,0-0.3,0-0.4,0
	c-4.2,0-8.4,0-12.7,0c-2.6,0-4.5,2.3-4,4.8c0.3,1.9,2,3.3,4,3.3c4.2,0,8.4,0,12.6,0C28,37,28.2,37,28.3,37z"/>
</svg>
