<?xml version="1.0" encoding="utf-8"?>
<!-- Generator: Adobe Illustrator 24.0.1, SVG Export Plug-In . SVG Version: 6.00 Build 0)  -->
<svg version="1.1"
	 id="svg2858" xmlns:cc="http://creativecommons.org/ns#" xmlns:dc="http://purl.org/dc/elements/1.1/" xmlns:inkscape="http://www.inkscape.org/namespaces/inkscape" xmlns:rdf="http://www.w3.org/1999/02/22-rdf-syntax-ns#" xmlns:sodipodi="http://sodipodi.sourceforge.net/DTD/sodipodi-0.dtd" xmlns:svg="http://www.w3.org/2000/svg"
	 xmlns="http://www.w3.org/2000/svg" xmlns:xlink="http://www.w3.org/1999/xlink" x="0px" y="0px" viewBox="0 0 100 100"
	 style="enable-background:new 0 0 100 100;" xml:space="preserve">
<style type="text/css">
	.st0{opacity:0.5;}
	.st1{fill:#030104;}
</style>
<g class="st0">
	<path class="st1" d="M50,2.7C23.9,2.7,2.7,23.9,2.7,50S23.9,97.3,50,97.3S97.3,76.1,97.3,50S76.1,2.7,50,2.7z M59.8,76
		c-2.4,1-4.4,1.7-5.8,2.2C52.6,78.7,50.9,79,49,79c-2.9,0-5.2-0.7-6.9-2.2c-1.6-1.4-2.4-3.3-2.4-5.5c0-0.9,0.1-1.7,0.2-2.6
		c0.1-0.9,0.3-1.9,0.6-3l3-10.8c0.3-1,0.5-2,0.7-2.9c0.2-0.9,0.3-1.8,0.3-2.5c0-1.4-0.3-2.3-0.8-2.9c-0.6-0.5-1.6-0.8-3.3-0.8
		c-0.8,0-1.6,0.1-2.4,0.4c-0.8,0.3-1.5,0.5-2.1,0.7l0.8-3.3c2-0.8,3.9-1.5,5.7-2.1c1.8-0.6,3.5-0.9,5.2-0.9c2.9,0,5.2,0.7,6.8,2.1
		c1.6,1.4,2.4,3.3,2.4,5.5c0,0.5-0.1,1.3-0.2,2.5c-0.1,1.2-0.3,2.3-0.6,3.2l-3,10.7c-0.2,0.9-0.5,1.8-0.7,2.9
		c-0.2,1.1-0.3,1.9-0.3,2.5c0,1.4,0.3,2.4,1,2.9c0.6,0.5,1.7,0.8,3.3,0.8c0.7,0,1.6-0.1,2.5-0.4c0.9-0.3,1.6-0.5,2-0.7L59.8,76z
		 M59.3,32.4c-1.4,1.3-3.1,2-5.1,2c-2,0-3.7-0.7-5.1-2c-1.4-1.3-2.1-2.9-2.1-4.8c0-1.9,0.7-3.5,2.1-4.8c1.4-1.3,3.1-2,5.1-2
		c2,0,3.7,0.7,5.1,2c1.4,1.3,2.1,2.9,2.1,4.8C61.4,29.5,60.7,31.1,59.3,32.4z"/>
</g>
</svg>
