<?xml version="1.0" encoding="utf-8"?>
<!-- Generator: Adobe Illustrator 24.0.1, SVG Export Plug-In . SVG Version: 6.00 Build 0)  -->
<svg version="1.1"
	 id="svg1931" xmlns:cc="http://creativecommons.org/ns#" xmlns:dc="http://purl.org/dc/elements/1.1/" xmlns:inkscape="http://www.inkscape.org/namespaces/inkscape" xmlns:rdf="http://www.w3.org/1999/02/22-rdf-syntax-ns#" xmlns:sodipodi="http://sodipodi.sourceforge.net/DTD/sodipodi-0.dtd" xmlns:svg="http://www.w3.org/2000/svg"
	 xmlns="http://www.w3.org/2000/svg" xmlns:xlink="http://www.w3.org/1999/xlink" x="0px" y="0px" viewBox="0 0 128 128"
	 style="enable-background:new 0 0 128 128;" xml:space="preserve">
<style type="text/css">
	.st0{fill:#FFFFFF;}
</style>
<sodipodi:namedview  bordercolor="#666666" borderopacity="1.0" gridtolerance="10.0" guidetolerance="10.0" id="base" inkscape:current-layer="g5908" inkscape:cx="-26.577351" inkscape:cy="72.426878" inkscape:pageopacity="0.0" inkscape:pageshadow="2" inkscape:window-height="933" inkscape:window-maximized="0" inkscape:window-width="1163" inkscape:window-x="204" inkscape:window-y="90" inkscape:zoom="4" objecttolerance="10.0" pagecolor="#ffffff" showgrid="false">
	</sodipodi:namedview>
<path class="st0" d="M102.7,61.1c-1.4-0.5-2.8-1-4.7-1.7c-0.2-0.1-0.5-0.4-0.5-0.7V39.6C97.7,21,82.6,5.9,64,5.9S30.3,21,30.3,39.6
	v19.2c0,0.2-0.3,0.6-0.5,0.7c-1.8,0.6-3.3,1.1-4.7,1.7c-1.6,0.6-2.8,2.4-2.8,4.2v44.2c0,1.7,1.2,3.5,2.8,4.2
	c12.4,4.9,25.5,7.4,38.8,7.4s26.4-2.5,38.8-7.4c1.6-0.6,2.8-2.4,2.8-4.2V65.3C105.5,63.5,104.3,61.8,102.7,61.1z M86.1,56.2
	c-7.2-1.6-14.7-2.3-22.1-2.3s-14.8,0.8-22.1,2.3V39.6c0-12.2,9.9-22.1,22.1-22.1s22.1,9.9,22.1,22.1V56.2z"/>
</svg>
