<?xml version="1.0" encoding="utf-8"?>
<!-- Generator: Adobe Illustrator 24.0.1, SVG Export Plug-In . SVG Version: 6.00 Build 0)  -->
<svg version="1.1"
	 id="svg2" xmlns:cc="http://creativecommons.org/ns#" xmlns:dc="http://purl.org/dc/elements/1.1/" xmlns:inkscape="http://www.inkscape.org/namespaces/inkscape" xmlns:rdf="http://www.w3.org/1999/02/22-rdf-syntax-ns#" xmlns:sodipodi="http://sodipodi.sourceforge.net/DTD/sodipodi-0.dtd" xmlns:svg="http://www.w3.org/2000/svg"
	 xmlns="http://www.w3.org/2000/svg" xmlns:xlink="http://www.w3.org/1999/xlink" x="0px" y="0px" viewBox="0 0 64 64"
	 style="enable-background:new 0 0 64 64;" xml:space="preserve">
<style type="text/css">
	.st0{fill:#FFFFFF;}
</style>
<sodipodi:namedview  bordercolor="#666666" borderopacity="1" gridtolerance="10" guidetolerance="10" id="namedview16" inkscape:current-layer="svg2" inkscape:cx="49.593625" inkscape:cy="9.752988" inkscape:pageopacity="0" inkscape:pageshadow="2" inkscape:window-height="752" inkscape:window-maximized="1" inkscape:window-width="1280" inkscape:window-x="-4" inkscape:window-y="-3" inkscape:zoom="38.985767" objecttolerance="10" pagecolor="#ffffff" showgrid="false">
	</sodipodi:namedview>
<defs>
	
		<inkscape:perspective  id="perspective20" inkscape:persp3d-origin="32 : 21.333333 : 1" inkscape:vp_x="0 : 32 : 1" inkscape:vp_y="0 : 1000 : 0" inkscape:vp_z="64 : 32 : 1" sodipodi:type="inkscape:persp3d">
		</inkscape:perspective>
</defs>
<g>
	<path class="st0" d="M3.5,18.2c0.1-0.3,0.1-0.5,0.2-0.8c0.8-2.4,3.6-3.3,5.7-1.9c0.3,0.2,0.6,0.4,0.8,0.6c0.7,0.8,1.5,1.5,2.2,2.3
		C10.6,20.2,8.8,22,7,23.9c-0.1-0.1-0.3-0.3-0.4-0.4c-0.6-0.7-1.3-1.3-1.9-2c-0.6-0.6-1.1-1.3-1.2-2.2C3.5,18.9,3.5,18.6,3.5,18.2z"
		/>
	<path class="st0" d="M16.8,38.2c0.1,0.1,0.2,0.2,0.3,0.2c1.8,1.8,3.5,3.5,5.3,5.3c0.1,0.1,0.2,0.3,0.2,0.5c0,1.5,0,3,0,4.5
		c0,0.6,0,1.2,0.1,1.7c0,0.4,0,0.4,0.4,0.4c2.6,0,5.2,0.1,7.8,0.1c6.2,0,12.4,0,18.7,0c1.6,0,3.3-0.1,4.9-0.1c0.3,0,0.4-0.1,0.4-0.4
		c0-2.9,0.1-5.7,0.1-8.6c0-5.9,0-11.8-0.1-17.6c0-0.5,0-1,0-1.5c0-0.2-0.1-0.3-0.3-0.3c-0.6,0-1.3-0.1-1.9-0.1c-1.2,0-2.5,0-3.7-0.2
		c-1.9-0.4-3.1-1.6-3.3-3.5c-0.1-1.2-0.2-2.5-0.2-3.7c0-0.5,0-1.1-0.1-1.6c0-0.2-0.1-0.4-0.4-0.4c-1.4,0-2.8-0.1-4.2-0.1
		c-5.1,0-10.3,0-15.4,0c-0.8,0-1.6,0.1-2.4,0.1c-0.3,0-0.3,0.1-0.3,0.3c0,0.5-0.1,1-0.1,1.5c0,2.9,0,5.7,0,8.6c0,0.1,0,0.2,0,0.4
		c-0.1-0.1-0.2-0.1-0.2-0.2c-1.8-1.8-3.5-3.5-5.3-5.3c-0.1-0.1-0.2-0.3-0.2-0.4c0-1.8,0-3.5,0.1-5.3c0.1-2.4,2.1-4.8,4.4-5.2
		c0.5-0.1,0.9-0.1,1.4-0.1c7.3,0,14.7,0,22,0c0.8,0,1.6,0,2.5,0c0.4,0,0.7,0.1,1,0.4c1.1,1.1,2.3,2.1,3.4,3.2
		c2.8,2.8,5.5,5.6,8.3,8.4c0.1,0.1,0.2,0.2,0.3,0.3c0.3,0.3,0.4,0.7,0.4,1.2c0,9.3,0,18.5,0,27.8c0,0.8,0,1.7,0,2.5
		c0,2.2-1.1,3.8-2.9,4.9c-0.7,0.4-1.4,0.6-2.2,0.6c-2.1,0.1-4.1,0.1-6.2,0.1c-7.8,0-15.6,0-23.4,0c-1.1,0-2.3-0.1-3.4,0
		c-1.5,0-2.7-0.6-3.8-1.5C17.6,54,17,52.7,17,51c0-2.9,0-5.8-0.1-8.7C16.7,41,16.8,39.7,16.8,38.2z"/>
	<path class="st0" d="M14.3,20.2c0.7,0.8,1.4,1.5,2.1,2.2c4,4.1,8.1,8.1,12.1,12.2c1.1,1.1,2.2,2.1,2.9,3.5c0.7,1.1,1.2,2.3,1.8,3.5
		c0.8,1.7,1.5,3.4,2.3,5.1c0,0.1,0.1,0.2,0.1,0.4c-0.3-0.1-0.6-0.2-0.9-0.3c-2.8-1.3-5.6-2.7-8.4-4c-0.7-0.3-1.2-0.8-1.7-1.3
		c-4.1-4-8.1-8.1-12.2-12.1c-1.2-1.2-2.4-2.4-3.6-3.6C10.7,23.9,12.5,22.1,14.3,20.2z M29,37.6c-0.6,0.6-1.1,1.1-1.6,1.6
		c-0.3,0.3-0.7,0.7-1,1c-0.2,0.2-0.2,0.3,0.1,0.4c1,0.5,2,1.1,3,1.6c0.1,0.1,0.2,0.1,0.4,0c0.3-0.3,0.6-0.6,0.9-0.9
		c0.1-0.1,0.1-0.2,0-0.3c-0.2-0.3-0.3-0.7-0.5-1C29.9,39.2,29.5,38.4,29,37.6z"/>
	<path class="st0" d="M27.2,28.4c0.2,0,0.5-0.1,0.7-0.1c2,0,4.1-0.1,6.1-0.1c5,0,10,0,14.9,0c0.8,0,1.7,0.7,1.9,1.5
		c0.2,0.6-0.2,1.5-0.9,1.9c-0.4,0.2-0.7,0.4-1.2,0.4c-6,0-12,0-17.9,0c-0.2,0-0.4-0.1-0.6-0.2c-1-1-2-2-2.9-3
		c-0.1-0.1-0.1-0.2-0.2-0.2C27.2,28.5,27.2,28.4,27.2,28.4z"/>
	<path class="st0" d="M34,35.8c0.2,0,0.3,0,0.4,0c4.9,0,9.9,0,14.8,0c0.5,0,0.9,0.3,1.2,0.6c1,1.1,0.6,2.1-0.4,2.8
		c-0.3,0.3-0.7,0.4-1.2,0.4c-4.2,0-8.4,0-12.6,0c-0.2,0-0.4-0.1-0.5-0.3c-0.5-1-1-2-1.6-3C34.2,36.2,34.1,36,34,35.8z"/>
	<path class="st0" d="M33.9,18.7c1.6,0,3.2,0,4.8,0c0.4,0,0.9,0,1.3,0.1c0.8,0.1,1.6,1.1,1.5,1.9s-0.9,1.7-1.8,1.7
		c-0.8,0-1.6,0.1-2.5,0.1c-2.6,0-5.3,0-7.9,0c-0.4,0-0.9,0-1.3-0.1c-1-0.1-1.9-1.2-1.7-2.1c0.2-0.9,1-1.5,1.8-1.6
		C30.1,18.7,32,18.7,33.9,18.7L33.9,18.7z"/>
	<path class="st0" d="M37.7,43.4c0.1,0,0.2,0,0.3,0c3.3,0,6.6,0,9.8,0c0.5,0,1.1,0,1.6,0.1c0.8,0.1,1.6,1,1.6,1.8s-0.8,1.7-1.6,1.8
		c-0.9,0.1-1.8,0.1-2.7,0.1c-2.5,0-4.9,0-7.4,0c-0.1,0-0.2,0-0.3,0c-0.1-1.3-0.8-2.3-1.2-3.4C37.8,43.7,37.8,43.5,37.7,43.4z"/>
</g>
</svg>
