<?xml version="1.0" encoding="utf-8"?>
<!-- Generator: Adobe Illustrator 24.0.1, SVG Export Plug-In . SVG Version: 6.00 Build 0)  -->
<svg version="1.1"
	 id="svg2646" xmlns:cc="http://creativecommons.org/ns#" xmlns:dc="http://purl.org/dc/elements/1.1/" xmlns:inkscape="http://www.inkscape.org/namespaces/inkscape" xmlns:rdf="http://www.w3.org/1999/02/22-rdf-syntax-ns#" xmlns:sodipodi="http://sodipodi.sourceforge.net/DTD/sodipodi-0.dtd" xmlns:svg="http://www.w3.org/2000/svg"
	 xmlns="http://www.w3.org/2000/svg" xmlns:xlink="http://www.w3.org/1999/xlink" x="0px" y="0px" viewBox="0 0 64 64"
	 style="enable-background:new 0 0 64 64;" xml:space="preserve">
<style type="text/css">
	.st0{fill:#FFFFFF;}
</style>
<defs>
	
		<inkscape:perspective  id="perspective2654" inkscape:persp3d-origin="372.04724 : 350.78739 : 1" inkscape:vp_x="0 : 526.18109 : 1" inkscape:vp_y="0 : 1000 : 0" inkscape:vp_z="744.09448 : 526.18109 : 1" sodipodi:type="inkscape:persp3d">
		</inkscape:perspective>
</defs>
<sodipodi:namedview  bordercolor="#666666" borderopacity="1.0" id="base" inkscape:current-layer="layer2" inkscape:cx="12.656427" inkscape:cy="31.784541" inkscape:document-units="px" inkscape:pageopacity="0.0" inkscape:pageshadow="2" inkscape:window-height="725" inkscape:window-maximized="1" inkscape:window-width="1280" inkscape:window-x="0" inkscape:window-y="25" inkscape:zoom="7.625" pagecolor="#ffffff" showgrid="false">
	</sodipodi:namedview>
<g id="layer1" inkscape:groupmode="layer" inkscape:label="Ebene 1">
</g>
<path class="st0" d="M7.3,19.6c-0.2-2-0.3-3.7,0.7-5.4c1.1-1.9,2.8-2.9,5-3c1.6,0,3.2,0,4.8,0c0.2,0,0.5,0,0.8,0c0-1.2,0-2.4,0-3.6
	c0-0.6,0-1.2,0.2-1.7C19.3,4.1,20.7,3,22.6,3c6.2,0,12.5,0,18.7,0c2.5,0,3.8,1.3,3.8,3.8c0,1.5,0,3,0,4.5c0.5,0,0.9,0.1,1.3,0.1
	c1.5,0,2.9,0,4.4,0c3,0,5.2,1.9,5.7,4.8c0.2,1.1,0.2,2.2,0.3,3.3c-1.4,0-2.7,0-4.1,0c0,0.3,0,0.6,0,0.8c0,11.1,0,22.3,0,33.4
	c0,4.3-2.7,7.1-7,7.2c-9.1,0-18.2,0-27.3,0c-3.6,0-6.3-2.1-7.2-5.3c-0.2-0.8-0.3-1.6-0.3-2.4c0-10.9,0-21.9,0-32.8
	c0-0.3,0-0.5,0-0.9C9.8,19.6,8.6,19.6,7.3,19.6z M30,19.8c0,0.2,0,0.3,0,0.3c0,10.1,0,20.2,0,30.3c0,0.5,0.1,1.1,0.3,1.6
	c0.3,0.8,1.1,1.1,2,1c0.8-0.1,1.2-0.5,1.4-1.4c0.1-0.5,0.1-0.9,0.1-1.4c0-9.9,0-19.8,0-29.7c0-0.2,0-0.5,0-0.7
	C32.4,19.8,31.3,19.8,30,19.8z M41.4,19.8c0,0.1,0,0.2,0,0.3c0,10.2,0,20.3,0,30.5c0,0.5,0.1,0.9,0.3,1.4c0.3,0.8,1.1,1.1,2.1,0.9
	c0.8-0.1,1.2-0.5,1.3-1.4c0.1-0.5,0.1-0.9,0.1-1.4c0-9.9,0-19.7,0-29.6c0-0.2,0-0.5,0-0.7C43.9,19.8,42.7,19.8,41.4,19.8z
	 M22.5,19.9c-1.3,0-2.5,0-3.7,0c0,0.2,0,0.2,0,0.3c0,10.1,0,20.3,0,30.4c0,0.4,0,0.8,0.1,1.1c0.2,0.9,0.6,1.3,1.4,1.4
	c1,0.1,1.7-0.2,1.9-1.1c0.2-0.6,0.3-1.2,0.3-1.8c0-9.9,0-19.8,0-29.6C22.5,20.3,22.5,20.1,22.5,19.9z M22.4,11.3
	c6.3,0,12.6,0,18.9,0c0-1.4,0-2.7,0-4.1c-6.3,0-12.6,0-18.9,0C22.4,8.6,22.4,9.9,22.4,11.3z"/>
</svg>
