<?xml version="1.0" encoding="utf-8"?>
<!-- Generator: Adobe Illustrator 24.0.1, SVG Export Plug-In . SVG Version: 6.00 Build 0)  -->
<svg version="1.1"
	 id="svg2" xmlns:cc="http://creativecommons.org/ns#" xmlns:dc="http://purl.org/dc/elements/1.1/" xmlns:inkscape="http://www.inkscape.org/namespaces/inkscape" xmlns:rdf="http://www.w3.org/1999/02/22-rdf-syntax-ns#" xmlns:sodipodi="http://sodipodi.sourceforge.net/DTD/sodipodi-0.dtd" xmlns:svg="http://www.w3.org/2000/svg"
	 xmlns="http://www.w3.org/2000/svg" xmlns:xlink="http://www.w3.org/1999/xlink" x="0px" y="0px" viewBox="0 0 64 64"
	 style="enable-background:new 0 0 64 64;" xml:space="preserve">
<defs>
	
		<inkscape:perspective  id="perspective10" inkscape:persp3d-origin="372.04724 : 350.78739 : 1" inkscape:vp_x="0 : 526.18109 : 1" inkscape:vp_y="0 : 1000 : 0" inkscape:vp_z="744.09448 : 526.18109 : 1" sodipodi:type="inkscape:persp3d">
		</inkscape:perspective>
	
		<inkscape:perspective  id="perspective3685" inkscape:persp3d-origin="0.5 : 0.33333333 : 1" inkscape:vp_x="0 : 0.5 : 1" inkscape:vp_y="0 : 1000 : 0" inkscape:vp_z="1 : 0.5 : 1" sodipodi:type="inkscape:persp3d">
		</inkscape:perspective>
</defs>
<sodipodi:namedview  bordercolor="#666666" borderopacity="1.0" id="base" inkscape:current-layer="g3717" inkscape:cx="6.0725518" inkscape:cy="32" inkscape:document-units="px" inkscape:pageopacity="0.0" inkscape:pageshadow="2" inkscape:window-height="1028" inkscape:window-maximized="1" inkscape:window-width="1920" inkscape:window-x="-8" inkscape:window-y="-8" inkscape:zoom="7.84375" pagecolor="#ffffff" showgrid="false">
	</sodipodi:namedview>
<path d="M44.5,39.7c0.1,0.1,0.3,0.2,0.4,0.3c3,3,6.1,6.1,9.1,9.1c1,1,1.3,2.2,0.9,3.6c-0.4,1.4-1.4,2.2-2.8,2.5
	c-1.2,0.2-2.2-0.1-3.1-1C46.1,51.1,43,48,39.9,45c-0.1-0.1-0.2-0.3-0.3-0.4c-9.3,6.4-21.3,3.4-27-4.4c-5.8-8-5-18.9,2-25.8
	c6.8-6.6,17.6-7.6,25.7-1.5C48.1,18.7,50.8,30.6,44.5,39.7z M28.4,40.9c6.9,0,12.5-5.5,12.5-12.5c0-6.9-5.5-12.4-12.3-12.5
	c-6.7-0.1-12.7,5.5-12.6,12.5C16,35.3,21.5,40.9,28.4,40.9z"/>
</svg>
