<?xml version="1.0" encoding="utf-8"?>
<!-- Generator: Adobe Illustrator 24.0.1, SVG Export Plug-In . SVG Version: 6.00 Build 0)  -->
<svg version="1.1"
	 id="Layer_1" xmlns:cc="http://creativecommons.org/ns#" xmlns:dc="http://purl.org/dc/elements/1.1/" xmlns:inkscape="http://www.inkscape.org/namespaces/inkscape" xmlns:rdf="http://www.w3.org/1999/02/22-rdf-syntax-ns#" xmlns:sodipodi="http://sodipodi.sourceforge.net/DTD/sodipodi-0.dtd" xmlns:svg="http://www.w3.org/2000/svg"
	 xmlns="http://www.w3.org/2000/svg" xmlns:xlink="http://www.w3.org/1999/xlink" x="0px" y="0px" viewBox="0 0 132.9 133.1"
	 style="enable-background:new 0 0 132.9 133.1;" xml:space="preserve">
<style type="text/css">
	.st0{fill:#FFFFFF;}
</style>
<sodipodi:namedview  bordercolor="#666666" borderopacity="1.0" id="base" inkscape:current-layer="Layer_1" inkscape:cx="11.842486" inkscape:cy="69.252383" inkscape:pageopacity="0.0" inkscape:pageshadow="2" inkscape:window-height="928" inkscape:window-maximized="0" inkscape:window-width="1411" inkscape:window-x="191" inkscape:window-y="47" inkscape:zoom="5.4103608" pagecolor="#ffffff" showgrid="false">
	</sodipodi:namedview>
<path class="st0" d="M66.7,10.2c1.4,0,2.8,0,4.3,0c4.2,0,7.3,3.1,7.4,7.3c0,1.7,0,3.4,0.1,5.1c0.2,2.8,1.9,4.7,4.5,5.6
	c2.5,0.9,4.9,0.4,6.9-1.4c1.1-1,2.1-2.2,3.2-3.2c3-2.7,7.2-2.7,10.1,0c2.4,2.2,4.7,4.5,7,6.9c2.4,2.6,2.4,6.6,0.1,9.3
	c-1.1,1.3-2.3,2.4-3.5,3.5c-2,2-2.6,4.5-1.6,7.1c1.1,2.8,3.2,4.3,6.2,4.4c1.5,0.1,2.9,0,4.4,0c4,0.1,6.7,2.7,6.8,6.7
	c0.1,3.2,0.1,6.5,0,9.7c-0.1,4.1-2.9,6.7-7,6.8c-1.6,0-3.2,0-4.8,0.1c-2.8,0.2-4.7,1.8-5.7,4.4s-0.4,5,1.6,7c1,1,2.1,2.1,3.1,3.1
	c2.6,2.6,2.9,6.8,0.5,9.5s-5,5.3-7.7,7.7c-2.7,2.4-6.9,2.1-9.5-0.4c-1-0.9-1.9-1.9-2.9-2.9c-2.2-2.1-4.7-2.8-7.7-1.7
	c-2.7,1.1-4.2,3.4-4.2,6.6c0,1.6,0,3.1-0.1,4.7c-0.3,3.8-3.4,6.6-7.1,6.6c-2.9,0-5.8,0-8.7,0c-4,0-7.1-2.8-7.4-6.9
	c-0.1-1.6,0-3.2-0.1-4.8c0-2.9-1.5-4.9-4-6.1c-2.6-1.2-5.1-0.8-7.2,1.1c-1.1,1-2.1,2.1-3.1,3.1c-3.1,3-7.5,3-10.5,0.1
	c-2.2-2.1-4.4-4.3-6.5-6.5c-2.8-2.9-2.7-7.1,0.1-10c1-1.1,2.1-2.1,3.1-3.1c2-2.1,2.5-4.5,1.4-7.2c-1.1-2.6-3.1-4.1-5.9-4.3
	c-1.5-0.1-2.9,0-4.4,0c-4.7-0.1-7.7-3.1-7.7-7.8c0-2.6,0-5.3,0-7.9c0-4.2,3-7.3,7.2-7.5c1.5-0.1,2.9,0,4.4,0c3.1,0,5.3-1.5,6.4-4.3
	s0.5-5.3-1.6-7.4c-1.1-1.1-2.2-2.1-3.2-3.3c-2.6-2.9-2.4-7,0.3-9.8c2.1-2.1,4.1-4.2,6.3-6.2c3.3-3.2,7.6-3.2,11,0
	c1,0.9,1.8,1.9,2.8,2.8c2.1,1.9,4.6,2.4,7.2,1.3c2.7-1.1,4.1-3.2,4.2-6.1c0-1.9,0-3.8,0.2-5.7c0.5-3.5,3.5-6,7-6.1
	C63.8,10.2,65.3,10.2,66.7,10.2z M66.8,43.1c-13,0-23.5,10.5-23.5,23.5s10.5,23.5,23.5,23.5c12.9,0,23.4-10.5,23.5-23.4
	C90.2,53.6,79.7,43.1,66.8,43.1z"/>
</svg>
