<?xml version="1.0" encoding="utf-8"?>
<!-- Generator: Adobe Illustrator 24.0.1, SVG Export Plug-In . SVG Version: 6.00 Build 0)  -->
<svg version="1.1"
	 id="svg2" xmlns:cc="http://creativecommons.org/ns#" xmlns:dc="http://purl.org/dc/elements/1.1/" xmlns:inkscape="http://www.inkscape.org/namespaces/inkscape" xmlns:rdf="http://www.w3.org/1999/02/22-rdf-syntax-ns#" xmlns:sodipodi="http://sodipodi.sourceforge.net/DTD/sodipodi-0.dtd" xmlns:svg="http://www.w3.org/2000/svg"
	 xmlns="http://www.w3.org/2000/svg" xmlns:xlink="http://www.w3.org/1999/xlink" x="0px" y="0px" viewBox="0 0 122.1 72.1"
	 style="enable-background:new 0 0 122.1 72.1;" xml:space="preserve">
<defs>
	
		<inkscape:perspective  id="perspective10" inkscape:persp3d-origin="372.04724 : 350.78739 : 1" inkscape:vp_x="0 : 526.18109 : 1" inkscape:vp_y="0 : 1000 : 0" inkscape:vp_z="744.09448 : 526.18109 : 1" sodipodi:type="inkscape:persp3d">
		</inkscape:perspective>
</defs>
<sodipodi:namedview  bordercolor="#666666" borderopacity="1.0" gridtolerance="10000" guidetolerance="10" id="base" inkscape:current-layer="layer1" inkscape:cx="296.89701" inkscape:cy="743.73197" inkscape:document-units="px" inkscape:guide-bbox="true" inkscape:pageopacity="0.0" inkscape:pageshadow="2" inkscape:window-height="712" inkscape:window-width="1024" inkscape:window-x="-4" inkscape:window-y="-4" inkscape:zoom="1.9163562" objecttolerance="10" pagecolor="#ffffff" showgrid="false" showguides="true">
	</sodipodi:namedview>
<path d="M59.8,65.9c-9.4,0-18.7-3.1-27.2-8.9c-5.8-3.9-10.8-8.6-15.7-13.5c-2.5-2.5-4.9-5-7.4-7.5c-0.4-0.4-0.4-0.7,0-1.1
	c5.2-5.3,10.6-10.6,16.3-15.3c5.2-4.2,10.6-7.9,16.8-10.6c7.3-3.2,14.9-4.5,22.8-3.7c9.1,0.8,17.2,4.2,24.8,9.2
	C97,19,103,24.6,108.6,30.6c1.4,1.6,2.8,3.2,4.3,4.7c0.3,0.3,0.4,0.6,0,1c-5.3,5.3-10.6,10.6-16.4,15.3c-5.3,4.3-11,8-17.3,10.6
	C73.2,64.6,67.1,66,59.8,65.9z M39.3,35.5c0,11.9,9.7,21.7,21.6,21.7c12,0,21.8-9.7,21.8-21.7c0-11.9-9.8-21.7-21.7-21.7
	C49.1,13.8,39.3,23.5,39.3,35.5z"/>
<path d="M61,22.5c-2.1,4.2-1.9,8.2,1.5,11.6c3.4,3.4,7.4,3.6,11.6,1.5c0.4,2.8-1.5,8-5.7,10.7c-5,3.3-11.3,2.9-15.9-1
	c-4.4-3.8-5.7-10.2-3.2-15.5C51.8,24.6,57.3,22.3,61,22.5z"/>
</svg>
