<?xml version="1.0" encoding="utf-8"?>
<!-- Generator: Adobe Illustrator 24.0.1, SVG Export Plug-In . SVG Version: 6.00 Build 0)  -->
<svg version="1.1" id="Livello_1" xmlns="http://www.w3.org/2000/svg" xmlns:xlink="http://www.w3.org/1999/xlink" x="0px" y="0px"
	 viewBox="0 0 520 520" style="enable-background:new 0 0 520 520;" xml:space="preserve">
<style type="text/css">
	.st0{fill:#FFFFFF;}
</style>
<g id="surface1">
	<path class="st0" d="M240,0v45C130.1,55.2,43.8,147.4,43.8,260c0,58.7,23.3,111.6,61.2,150.6l54.4-48.8
		c-26.2-26-42.5-62.1-42.5-101.9c0-72.2,53.6-132,123.1-141.9V160l128.1-80L240,0z M415,109.4l-53.8,48.8
		c26.2,26,41.9,62.2,41.9,101.9c0,72.3-53.5,131.5-123.1,141.2V360l-128.1,80L280,520v-45c109.9-10.2,196.2-102.4,196.2-215
		C476.2,201.3,453,148.4,415,109.4z"/>
</g>
</svg>
