<?xml version="1.0" encoding="utf-8"?>
<!-- Generator: Adobe Illustrator 24.0.1, SVG Export Plug-In . SVG Version: 6.00 Build 0)  -->
<svg version="1.1"
	 id="svg2858" xmlns:cc="http://creativecommons.org/ns#" xmlns:dc="http://purl.org/dc/elements/1.1/" xmlns:inkscape="http://www.inkscape.org/namespaces/inkscape" xmlns:rdf="http://www.w3.org/1999/02/22-rdf-syntax-ns#" xmlns:sodipodi="http://sodipodi.sourceforge.net/DTD/sodipodi-0.dtd" xmlns:svg="http://www.w3.org/2000/svg"
	 xmlns="http://www.w3.org/2000/svg" xmlns:xlink="http://www.w3.org/1999/xlink" x="0px" y="0px" viewBox="0 0 100 100"
	 style="enable-background:new 0 0 100 100;" xml:space="preserve">
<style type="text/css">
	.st0{fill:#3399D8;}
</style>
<defs>
	
		<inkscape:perspective  id="perspective2866" inkscape:persp3d-origin="372.04724 : 350.78739 : 1" inkscape:vp_x="0 : 526.18109 : 1" inkscape:vp_y="0 : 1000 : 0" inkscape:vp_z="744.09448 : 526.18109 : 1" sodipodi:type="inkscape:persp3d">
		</inkscape:perspective>
	
		<inkscape:perspective  id="perspective2853" inkscape:persp3d-origin="0.5 : 0.33333333 : 1" inkscape:vp_x="0 : 0.5 : 1" inkscape:vp_y="0 : 1000 : 0" inkscape:vp_z="1 : 0.5 : 1" sodipodi:type="inkscape:persp3d">
		</inkscape:perspective>
</defs>
<sodipodi:namedview  bordercolor="#666666" borderopacity="1.0" id="base" inkscape:current-layer="layer2" inkscape:cx="-9.896878" inkscape:cy="42.810059" inkscape:document-units="px" inkscape:pageopacity="0.0" inkscape:pageshadow="2" inkscape:window-height="1028" inkscape:window-maximized="1" inkscape:window-width="1920" inkscape:window-x="-8" inkscape:window-y="-8" inkscape:zoom="5" pagecolor="#ffffff" showgrid="false">
	</sodipodi:namedview>
<path class="st0" d="M10.4,50C10.4,28.4,28,10.7,49.7,10.6C71.8,10.5,89.5,28,89.6,49.8C89.7,71.7,72,89.3,50.2,89.4
	C28.1,89.5,10.5,72,10.4,50z M40.8,29c0.3,2.8,0.8,6.9,1.4,11.1c0.9,6.2,1.9,12.3,3.8,18.2c0.5,1.5,1.2,3.1,2,4.5
	c1.2,2,2.8,1.9,4-0.1c0.3-0.5,0.5-0.9,0.8-1.4c1.9-4.3,2.9-8.8,3.7-13.4c1-6.2,1.8-12.5,2.6-18.8c0.6-4.8-1.4-8.7-5.3-10.5
	C47.4,15.7,40.6,20.4,40.8,29z M57.4,76.3c0-2.2-1.2-5.2-2.8-6.8c-2.6-2.6-5.5-2.9-8.1-0.9c-2,1.6-3.2,3.6-3.7,6.1
	c-0.7,3.6,1,6.4,4.6,7.3c1.8,0.5,3.6,0.4,5.5,0C55.5,81.3,57.3,79.1,57.4,76.3z"/>
</svg>
